{
	"asset":{
		"generator":"Khronos glTF Blender I/O v4.2.70",
		"version":"2.0"
	},
	"scene":0,
	"scenes":[
		{
			"name":"Scene",
			"nodes":[
				33,
				34,
				35
			]
		}
	],
	"nodes":[
		{
			"mesh":0,
			"name":"Object_20"
		},
		{
			"children":[
				0
			],
			"name":"Circle.002_14",
			"rotation":[
				0,
				0.7071068286895752,
				-0.7071067094802856,
				9.563115099808783e-08
			],
			"scale":[
				0.39424052834510803,
				0.39424046874046326,
				0.39424043893814087
			],
			"translation":[
				0,
				0,
				-1.8784741163253784
			]
		},
		{
			"mesh":1,
			"name":"Object_22"
		},
		{
			"children":[
				2
			],
			"name":"Plane.003_15",
			"rotation":[
				0,
				1,
				0,
				7.897705245341058e-07
			],
			"scale":[
				5.188620090484619,
				5.188619613647461,
				5.188620567321777
			]
		},
		{
			"children":[
				1,
				3
			],
			"name":"BezierCircle.001_16",
			"rotation":[
				-0.5814743638038635,
				-0.7818812727928162,
				-0.12080162018537521,
				0.18962125480175018
			],
			"scale":[
				0.19272945821285248,
				0.19272947311401367,
				0.19272948801517487
			],
			"translation":[
				1.3824361562728882,
				1.405423879623413,
				-0.7517152428627014
			]
		},
		{
			"mesh":2,
			"name":"Object_32"
		},
		{
			"children":[
				5
			],
			"name":"BezierCircle.002_21",
			"rotation":[
				0.10339371860027313,
				0.9524110555648804,
				0.2772133946418762,
				0.07331912964582443
			],
			"scale":[
				0.19272948801517487,
				0.19272948801517487,
				0.19272948801517487
			],
			"translation":[
				0.5038004517555237,
				1.9664838314056396,
				0.19667790830135345
			]
		},
		{
			"mesh":3,
			"name":"Object_34"
		},
		{
			"children":[
				7
			],
			"name":"BezierCircle.003_22",
			"rotation":[
				-0.5814743638038635,
				-0.7818812727928162,
				-0.12080162018537521,
				0.18962125480175018
			],
			"scale":[
				0.19272945821285248,
				0.19272947311401367,
				0.19272948801517487
			],
			"translation":[
				1.3824361562728882,
				1.405423879623413,
				-0.7517152428627014
			]
		},
		{
			"mesh":4,
			"name":"Object_5"
		},
		{
			"children":[
				9
			],
			"name":"Circle_4",
			"rotation":[
				0,
				0.7071068286895752,
				-0.7071068286895752,
				1.1692890922176957e-07
			],
			"scale":[
				0.3942405879497528,
				0.39424052834510803,
				0.3942405581474304
			],
			"translation":[
				0,
				3.6954879760742188e-06,
				-1.8784749507904053
			]
		},
		{
			"children":[
				10
			],
			"name":"BezierCircle_5",
			"rotation":[
				0.10339371860027313,
				0.9524110555648804,
				0.2772133946418762,
				0.07331912964582443
			],
			"scale":[
				0.19272948801517487,
				0.19272948801517487,
				0.19272948801517487
			],
			"translation":[
				0.5038004517555237,
				1.9664838314056396,
				0.19667790830135345
			]
		},
		{
			"mesh":5,
			"name":"Object_13"
		},
		{
			"mesh":6,
			"name":"Object_15",
			"translation":[
				0,
				5.7220458984375e-06,
				0
			]
		},
		{
			"children":[
				13
			],
			"name":"Sphere_9",
			"scale":[
				0.016414931043982506,
				0.008522518910467625,
				0.016414932906627655
			],
			"translation":[
				0.09954068064689636,
				0.034163013100624084,
				-0.18320421874523163
			]
		},
		{
			"children":[
				12,
				14
			],
			"name":"Cube_10",
			"rotation":[
				-0.7071068286895752,
				0,
				0,
				0.7071067094802856
			],
			"scale":[
				13.161054611206055,
				13.161057472229004,
				13.16105842590332
			],
			"translation":[
				-1.5755611658096313,
				4.04865837097168,
				0
			]
		},
		{
			"mesh":7,
			"name":"Object_11",
			"translation":[
				3.814697265625e-06,
				0,
				0
			]
		},
		{
			"children":[
				15,
				16
			],
			"name":"Circle.001_11",
			"rotation":[
				0.7641295790672302,
				-0.3289090394973755,
				-0.41538721323013306,
				0.36793819069862366
			],
			"scale":[
				0.07598177343606949,
				0.07598178833723068,
				0.07598178833723068
			],
			"translation":[
				0.4324846565723419,
				1.780801773071289,
				0.49917998909950256
			]
		},
		{
			"mesh":8,
			"name":"Object_26"
		},
		{
			"mesh":9,
			"name":"Object_28",
			"translation":[
				7.927417755126953e-06,
				9.5367431640625e-06,
				2.86102294921875e-06
			]
		},
		{
			"children":[
				19
			],
			"name":"Sphere.001_17",
			"scale":[
				0.016414931043982506,
				0.00852251797914505,
				0.016414932906627655
			],
			"translation":[
				0.09954064339399338,
				0.03416278958320618,
				-0.18320392072200775
			]
		},
		{
			"children":[
				18,
				20
			],
			"name":"Cube.001_18",
			"rotation":[
				-0.7071068286895752,
				0,
				0,
				0.7071067094802856
			],
			"scale":[
				13.161052703857422,
				13.161054611206055,
				13.161056518554688
			],
			"translation":[
				-1.5755633115768433,
				4.048656463623047,
				0
			]
		},
		{
			"mesh":10,
			"name":"Object_24"
		},
		{
			"children":[
				21,
				22
			],
			"name":"Circle.003_19",
			"rotation":[
				0.1329873949289322,
				-0.5139155387878418,
				-0.8288695216178894,
				0.17657998204231262
			],
			"scale":[
				0.0759817585349083,
				0.0759817585349083,
				0.0759817585349083
			],
			"translation":[
				1.4389269351959229,
				1.2571982145309448,
				-0.42627838253974915
			]
		},
		{
			"name":"Plane.001_7",
			"scale":[
				17.138975143432617,
				17.138975143432617,
				17.138975143432617
			],
			"translation":[
				0.027391040697693825,
				0.029501035809516907,
				1.8878957033157349
			]
		},
		{
			"mesh":11,
			"name":"Object_17"
		},
		{
			"children":[
				25
			],
			"name":"Plane.002_12",
			"rotation":[
				0.27721336483955383,
				-0.07331926375627518,
				-0.1033937856554985,
				0.9524110555648804
			],
			"translation":[
				0.8900270462036133,
				2.8606138229370117,
				-1.4274570941925049
			]
		},
		{
			"mesh":12,
			"name":"Object_30"
		},
		{
			"children":[
				27
			],
			"name":"Plane.004_20",
			"rotation":[
				0.1717827022075653,
				0.03566896170377731,
				-0.18883003294467926,
				0.9662099480628967
			],
			"translation":[
				1.5281367301940918,
				1.9185373783111572,
				-2.581115961074829
			]
		},
		{
			"mesh":13,
			"name":"Object_7"
		},
		{
			"children":[
				29
			],
			"name":"Plane_6",
			"rotation":[
				0.27721333503723145,
				-0.07331930100917816,
				-0.10339377075433731,
				0.9524110555648804
			],
			"translation":[
				0.5038003921508789,
				1.9664835929870605,
				0.196678027510643
			]
		},
		{
			"children":[
				4,
				6,
				8,
				11,
				17,
				23,
				24,
				26,
				28,
				30
			],
			"name":"GLTF_SceneRootNode",
			"rotation":[
				0.70710688829422,
				0,
				0,
				0.7071066498756409
			]
		},
		{
			"children":[
				31
			],
			"name":"root"
		},
		{
			"children":[
				32
			],
			"name":"Sketchfab_model",
			"rotation":[
				-0.70710688829422,
				0,
				0,
				0.7071066498756409
			],
			"translation":[
				0,
				0.12516121566295624,
				0
			]
		},
		{
			"name":"Empty",
			"rotation":[
				-0.08057872205972672,
				-0.9650056958198547,
				-0.24251483380794525,
				0.05880197510123253
			],
			"scale":[
				-0.9999999403953552,
				-3.1599998474121094,
				-1
			],
			"translation":[
				0.5270910859107971,
				2.1931846141815186,
				0.9100399613380432
			]
		},
		{
			"name":"Empty.001",
			"rotation":[
				0.1860988289117813,
				0.16057127714157104,
				-0.19416159391403198,
				0.9496764540672302
			],
			"translation":[
				0.47930586338043213,
				1.3012865781784058,
				3.429953098297119
			]
		}
	],
	"materials":[
		{
			"doubleSided":true,
			"name":"Material.002",
			"pbrMetallicRoughness":{
				"baseColorFactor":[
					0.6403869986534119,
					0.6403869986534119,
					0.6403869986534119,
					1
				],
				"metallicFactor":0.8894153237342834,
				"roughnessFactor":0
			}
		},
		{
			"doubleSided":true,
			"name":"Material.003",
			"pbrMetallicRoughness":{
				"metallicFactor":0,
				"roughnessFactor":0.5
			}
		},
		{
			"doubleSided":true,
			"name":"Material.005",
			"pbrMetallicRoughness":{
				"baseColorFactor":[
					0.49388301372528076,
					0.49388301372528076,
					0.49388301372528076,
					1
				],
				"metallicFactor":0.7982127070426941,
				"roughnessFactor":0
			}
		},
		{
			"doubleSided":true,
			"name":"Material.004",
			"pbrMetallicRoughness":{
				"metallicFactor":0.24491697549819946,
				"roughnessFactor":0.5
			}
		}
	],
	"meshes":[
		{
			"name":"Object_7",
			"primitives":[
				{
					"attributes":{
						"POSITION":0,
						"NORMAL":1,
						"TEXCOORD_0":2
					},
					"indices":3,
					"material":0
				}
			]
		},
		{
			"name":"Object_8",
			"primitives":[
				{
					"attributes":{
						"POSITION":4,
						"NORMAL":5,
						"TEXCOORD_0":6
					},
					"indices":7,
					"material":1
				}
			]
		},
		{
			"name":"Object_13",
			"primitives":[
				{
					"attributes":{
						"POSITION":8,
						"NORMAL":9,
						"TEXCOORD_0":10
					},
					"indices":11,
					"material":0
				}
			]
		},
		{
			"name":"Object_14",
			"primitives":[
				{
					"attributes":{
						"POSITION":12,
						"NORMAL":13,
						"TEXCOORD_0":14
					},
					"indices":11,
					"material":0
				}
			]
		},
		{
			"name":"Object_0",
			"primitives":[
				{
					"attributes":{
						"POSITION":15,
						"NORMAL":16,
						"TEXCOORD_0":17
					},
					"indices":3,
					"material":0
				}
			]
		},
		{
			"name":"Object_4",
			"primitives":[
				{
					"attributes":{
						"POSITION":18,
						"NORMAL":19,
						"TEXCOORD_0":20
					},
					"indices":21,
					"material":0
				}
			]
		},
		{
			"name":"Object_5",
			"primitives":[
				{
					"attributes":{
						"POSITION":22,
						"NORMAL":23,
						"TEXCOORD_0":24
					},
					"indices":25,
					"material":2
				}
			]
		},
		{
			"name":"Object_3",
			"primitives":[
				{
					"attributes":{
						"POSITION":26,
						"NORMAL":27,
						"TEXCOORD_0":28
					},
					"indices":29,
					"material":0
				}
			]
		},
		{
			"name":"Object_10",
			"primitives":[
				{
					"attributes":{
						"POSITION":30,
						"NORMAL":31,
						"TEXCOORD_0":32
					},
					"indices":21,
					"material":0
				}
			]
		},
		{
			"name":"Object_11",
			"primitives":[
				{
					"attributes":{
						"POSITION":33,
						"NORMAL":34,
						"TEXCOORD_0":35
					},
					"indices":25,
					"material":2
				}
			]
		},
		{
			"name":"Object_9",
			"primitives":[
				{
					"attributes":{
						"POSITION":36,
						"NORMAL":37,
						"TEXCOORD_0":38
					},
					"indices":29,
					"material":0
				}
			]
		},
		{
			"name":"Object_6",
			"primitives":[
				{
					"attributes":{
						"POSITION":39,
						"NORMAL":40,
						"TEXCOORD_0":41
					},
					"indices":42,
					"material":3
				}
			]
		},
		{
			"name":"Object_12",
			"primitives":[
				{
					"attributes":{
						"POSITION":43,
						"NORMAL":44,
						"TEXCOORD_0":45
					},
					"indices":42,
					"material":3
				}
			]
		},
		{
			"name":"Object_1",
			"primitives":[
				{
					"attributes":{
						"POSITION":46,
						"NORMAL":47,
						"TEXCOORD_0":48
					},
					"indices":49,
					"material":1
				}
			]
		}
	],
	"accessors":[
		{
			"bufferView":0,
			"componentType":5126,
			"count":2208,
			"max":[
				1.0625746250152588,
				-0.6819520592689514,
				1.062574863433838
			],
			"min":[
				-1.0625746250152588,
				-2.013725996017456,
				-1.0625746250152588
			],
			"type":"VEC3"
		},
		{
			"bufferView":1,
			"componentType":5126,
			"count":2208,
			"type":"VEC3"
		},
		{
			"bufferView":2,
			"componentType":5126,
			"count":2208,
			"type":"VEC2"
		},
		{
			"bufferView":3,
			"componentType":5123,
			"count":10176,
			"type":"SCALAR"
		},
		{
			"bufferView":4,
			"componentType":5126,
			"count":1295,
			"max":[
				0.11735965311527252,
				0.026837492361664772,
				0.03691593185067177
			],
			"min":[
				-0.11735965311527252,
				-0.027347303926944733,
				-3.1167428493499756
			],
			"type":"VEC3"
		},
		{
			"bufferView":5,
			"componentType":5126,
			"count":1295,
			"type":"VEC3"
		},
		{
			"bufferView":6,
			"componentType":5126,
			"count":1295,
			"type":"VEC2"
		},
		{
			"bufferView":7,
			"componentType":5123,
			"count":5088,
			"type":"SCALAR"
		},
		{
			"bufferView":8,
			"componentType":5126,
			"count":637,
			"max":[
				1.0789685249328613,
				0.07000001519918442,
				0.0699995830655098
			],
			"min":[
				-1.0789686441421509,
				-0.07000001519918442,
				-1.5800584554672241
			],
			"type":"VEC3"
		},
		{
			"bufferView":9,
			"componentType":5126,
			"count":637,
			"type":"VEC3"
		},
		{
			"bufferView":10,
			"componentType":5126,
			"count":637,
			"type":"VEC2"
		},
		{
			"bufferView":11,
			"componentType":5123,
			"count":3456,
			"type":"SCALAR"
		},
		{
			"bufferView":12,
			"componentType":5126,
			"count":637,
			"max":[
				1.0789685249328613,
				0.07000001519918442,
				0.0699995830655098
			],
			"min":[
				-1.0789686441421509,
				-0.07000001519918442,
				-1.5800584554672241
			],
			"type":"VEC3"
		},
		{
			"bufferView":13,
			"componentType":5126,
			"count":637,
			"type":"VEC3"
		},
		{
			"bufferView":14,
			"componentType":5126,
			"count":637,
			"type":"VEC2"
		},
		{
			"bufferView":15,
			"componentType":5126,
			"count":2208,
			"max":[
				1.0625746250152588,
				-0.6819520592689514,
				1.062574863433838
			],
			"min":[
				-1.0625746250152588,
				-2.013725996017456,
				-1.0625746250152588
			],
			"type":"VEC3"
		},
		{
			"bufferView":16,
			"componentType":5126,
			"count":2208,
			"type":"VEC3"
		},
		{
			"bufferView":17,
			"componentType":5126,
			"count":2208,
			"type":"VEC2"
		},
		{
			"bufferView":18,
			"componentType":5126,
			"count":4420,
			"max":[
				0.3063305616378784,
				0.03417139872908592,
				0.1185370609164238
			],
			"min":[
				-0.023196285590529442,
				-0.03417139872908592,
				-0.3235153555870056
			],
			"type":"VEC3"
		},
		{
			"bufferView":19,
			"componentType":5126,
			"count":4420,
			"type":"VEC3"
		},
		{
			"bufferView":20,
			"componentType":5126,
			"count":4420,
			"type":"VEC2"
		},
		{
			"bufferView":21,
			"componentType":5123,
			"count":19872,
			"type":"SCALAR"
		},
		{
			"bufferView":22,
			"componentType":5126,
			"count":530,
			"max":[
				0.9999997019767761,
				1,
				0.9999994039535522
			],
			"min":[
				-0.9999992251396179,
				-8.913810729980469,
				-0.9999987483024597
			],
			"type":"VEC3"
		},
		{
			"bufferView":23,
			"componentType":5126,
			"count":530,
			"type":"VEC3"
		},
		{
			"bufferView":24,
			"componentType":5126,
			"count":530,
			"type":"VEC2"
		},
		{
			"bufferView":25,
			"componentType":5123,
			"count":3072,
			"type":"SCALAR"
		},
		{
			"bufferView":26,
			"componentType":5126,
			"count":1664,
			"max":[
				0.9929876327514648,
				-4.736778009828413e-06,
				0.9929877519607544
			],
			"min":[
				-0.9929876327514648,
				-0.6819520592689514,
				-0.9929876327514648
			],
			"type":"VEC3"
		},
		{
			"bufferView":27,
			"componentType":5126,
			"count":1664,
			"type":"VEC3"
		},
		{
			"bufferView":28,
			"componentType":5126,
			"count":1664,
			"type":"VEC2"
		},
		{
			"bufferView":29,
			"componentType":5123,
			"count":7872,
			"type":"SCALAR"
		},
		{
			"bufferView":30,
			"componentType":5126,
			"count":4420,
			"max":[
				0.3063305616378784,
				0.03417139872908592,
				0.1185370609164238
			],
			"min":[
				-0.023196285590529442,
				-0.03417139872908592,
				-0.3235153555870056
			],
			"type":"VEC3"
		},
		{
			"bufferView":31,
			"componentType":5126,
			"count":4420,
			"type":"VEC3"
		},
		{
			"bufferView":32,
			"componentType":5126,
			"count":4420,
			"type":"VEC2"
		},
		{
			"bufferView":33,
			"componentType":5126,
			"count":530,
			"max":[
				0.9999997019767761,
				1,
				0.9999994039535522
			],
			"min":[
				-0.9999992251396179,
				-8.913810729980469,
				-0.9999987483024597
			],
			"type":"VEC3"
		},
		{
			"bufferView":34,
			"componentType":5126,
			"count":530,
			"type":"VEC3"
		},
		{
			"bufferView":35,
			"componentType":5126,
			"count":530,
			"type":"VEC2"
		},
		{
			"bufferView":36,
			"componentType":5126,
			"count":1664,
			"max":[
				0.9929876327514648,
				-4.736778009828413e-06,
				0.9929877519607544
			],
			"min":[
				-0.9929876327514648,
				-0.6819520592689514,
				-0.9929876327514648
			],
			"type":"VEC3"
		},
		{
			"bufferView":37,
			"componentType":5126,
			"count":1664,
			"type":"VEC3"
		},
		{
			"bufferView":38,
			"componentType":5126,
			"count":1664,
			"type":"VEC2"
		},
		{
			"bufferView":39,
			"componentType":5126,
			"count":531,
			"max":[
				1.2297430038452148,
				0.3820343315601349,
				4.823159217834473
			],
			"min":[
				-0.8649080991744995,
				0.036315206438302994,
				2.314297676086426
			],
			"type":"VEC3"
		},
		{
			"bufferView":40,
			"componentType":5126,
			"count":531,
			"type":"VEC3"
		},
		{
			"bufferView":41,
			"componentType":5126,
			"count":531,
			"type":"VEC2"
		},
		{
			"bufferView":42,
			"componentType":5123,
			"count":1008,
			"type":"SCALAR"
		},
		{
			"bufferView":43,
			"componentType":5126,
			"count":531,
			"max":[
				1.2297430038452148,
				0.3820343315601349,
				4.823159217834473
			],
			"min":[
				-0.8649080991744995,
				0.036315206438302994,
				2.314297676086426
			],
			"type":"VEC3"
		},
		{
			"bufferView":44,
			"componentType":5126,
			"count":531,
			"type":"VEC3"
		},
		{
			"bufferView":45,
			"componentType":5126,
			"count":531,
			"type":"VEC2"
		},
		{
			"bufferView":46,
			"componentType":5126,
			"count":1351,
			"max":[
				0.11735966801643372,
				0.026837492361664772,
				0.03691593185067177
			],
			"min":[
				-0.11735965311527252,
				-0.027347303926944733,
				-2.758406639099121
			],
			"type":"VEC3"
		},
		{
			"bufferView":47,
			"componentType":5126,
			"count":1351,
			"type":"VEC3"
		},
		{
			"bufferView":48,
			"componentType":5126,
			"count":1351,
			"type":"VEC2"
		},
		{
			"bufferView":49,
			"componentType":5123,
			"count":5328,
			"type":"SCALAR"
		}
	],
	"bufferViews":[
		{
			"buffer":0,
			"byteLength":26496,
			"byteOffset":0,
			"target":34962
		},
		{
			"buffer":0,
			"byteLength":26496,
			"byteOffset":26496,
			"target":34962
		},
		{
			"buffer":0,
			"byteLength":17664,
			"byteOffset":52992,
			"target":34962
		},
		{
			"buffer":0,
			"byteLength":20352,
			"byteOffset":70656,
			"target":34963
		},
		{
			"buffer":0,
			"byteLength":15540,
			"byteOffset":91008,
			"target":34962
		},
		{
			"buffer":0,
			"byteLength":15540,
			"byteOffset":106548,
			"target":34962
		},
		{
			"buffer":0,
			"byteLength":10360,
			"byteOffset":122088,
			"target":34962
		},
		{
			"buffer":0,
			"byteLength":10176,
			"byteOffset":132448,
			"target":34963
		},
		{
			"buffer":0,
			"byteLength":7644,
			"byteOffset":142624,
			"target":34962
		},
		{
			"buffer":0,
			"byteLength":7644,
			"byteOffset":150268,
			"target":34962
		},
		{
			"buffer":0,
			"byteLength":5096,
			"byteOffset":157912,
			"target":34962
		},
		{
			"buffer":0,
			"byteLength":6912,
			"byteOffset":163008,
			"target":34963
		},
		{
			"buffer":0,
			"byteLength":7644,
			"byteOffset":169920,
			"target":34962
		},
		{
			"buffer":0,
			"byteLength":7644,
			"byteOffset":177564,
			"target":34962
		},
		{
			"buffer":0,
			"byteLength":5096,
			"byteOffset":185208,
			"target":34962
		},
		{
			"buffer":0,
			"byteLength":26496,
			"byteOffset":190304,
			"target":34962
		},
		{
			"buffer":0,
			"byteLength":26496,
			"byteOffset":216800,
			"target":34962
		},
		{
			"buffer":0,
			"byteLength":17664,
			"byteOffset":243296,
			"target":34962
		},
		{
			"buffer":0,
			"byteLength":53040,
			"byteOffset":260960,
			"target":34962
		},
		{
			"buffer":0,
			"byteLength":53040,
			"byteOffset":314000,
			"target":34962
		},
		{
			"buffer":0,
			"byteLength":35360,
			"byteOffset":367040,
			"target":34962
		},
		{
			"buffer":0,
			"byteLength":39744,
			"byteOffset":402400,
			"target":34963
		},
		{
			"buffer":0,
			"byteLength":6360,
			"byteOffset":442144,
			"target":34962
		},
		{
			"buffer":0,
			"byteLength":6360,
			"byteOffset":448504,
			"target":34962
		},
		{
			"buffer":0,
			"byteLength":4240,
			"byteOffset":454864,
			"target":34962
		},
		{
			"buffer":0,
			"byteLength":6144,
			"byteOffset":459104,
			"target":34963
		},
		{
			"buffer":0,
			"byteLength":19968,
			"byteOffset":465248,
			"target":34962
		},
		{
			"buffer":0,
			"byteLength":19968,
			"byteOffset":485216,
			"target":34962
		},
		{
			"buffer":0,
			"byteLength":13312,
			"byteOffset":505184,
			"target":34962
		},
		{
			"buffer":0,
			"byteLength":15744,
			"byteOffset":518496,
			"target":34963
		},
		{
			"buffer":0,
			"byteLength":53040,
			"byteOffset":534240,
			"target":34962
		},
		{
			"buffer":0,
			"byteLength":53040,
			"byteOffset":587280,
			"target":34962
		},
		{
			"buffer":0,
			"byteLength":35360,
			"byteOffset":640320,
			"target":34962
		},
		{
			"buffer":0,
			"byteLength":6360,
			"byteOffset":675680,
			"target":34962
		},
		{
			"buffer":0,
			"byteLength":6360,
			"byteOffset":682040,
			"target":34962
		},
		{
			"buffer":0,
			"byteLength":4240,
			"byteOffset":688400,
			"target":34962
		},
		{
			"buffer":0,
			"byteLength":19968,
			"byteOffset":692640,
			"target":34962
		},
		{
			"buffer":0,
			"byteLength":19968,
			"byteOffset":712608,
			"target":34962
		},
		{
			"buffer":0,
			"byteLength":13312,
			"byteOffset":732576,
			"target":34962
		},
		{
			"buffer":0,
			"byteLength":6372,
			"byteOffset":745888,
			"target":34962
		},
		{
			"buffer":0,
			"byteLength":6372,
			"byteOffset":752260,
			"target":34962
		},
		{
			"buffer":0,
			"byteLength":4248,
			"byteOffset":758632,
			"target":34962
		},
		{
			"buffer":0,
			"byteLength":2016,
			"byteOffset":762880,
			"target":34963
		},
		{
			"buffer":0,
			"byteLength":6372,
			"byteOffset":764896,
			"target":34962
		},
		{
			"buffer":0,
			"byteLength":6372,
			"byteOffset":771268,
			"target":34962
		},
		{
			"buffer":0,
			"byteLength":4248,
			"byteOffset":777640,
			"target":34962
		},
		{
			"buffer":0,
			"byteLength":16212,
			"byteOffset":781888,
			"target":34962
		},
		{
			"buffer":0,
			"byteLength":16212,
			"byteOffset":798100,
			"target":34962
		},
		{
			"buffer":0,
			"byteLength":10808,
			"byteOffset":814312,
			"target":34962
		},
		{
			"buffer":0,
			"byteLength":10656,
			"byteOffset":825120,
			"target":34963
		}
	],
	"buffers":[
		{
			"byteLength":835776,
			"uri":"untitled.bin"
		}
	]
}
